# xmcd
#
# Track frame offsets: 
#        150
#        11867
#        22555
#        43617
#        53842
#        64877
#        82522
#        96530
#        107767
#        120667
#        130692
#        139900
#        155992
#        167725
#        180000
#        192552
#        204292
#        214870
#        229265
#        242910
#
# Disc length: 3481 seconds
#
# Revision: 1
# Processed by: cddbd v1.5.2PL0 Copyright (c) Steve Scherf et al.
# Submitted via: ExactAudioCopy v0.95b4
#
DISCID=100d9714
DTITLE=Marty Robbins - The Best Of Marty Robbins
DYEAR=1999
DGENRE=Country
TTITLE0=The Story Of My Life
TTITLE1=Unchained Melody
TTITLE2=El Paso
TTITLE3=The Hawaiian Wedding Song
TTITLE4=Singing The Blues
TTITLE5=Big Iron
TTITLE6=Love Me Tender
TTITLE7=A White Sport Coat
TTITLE8=Devil Woman
TTITLE9=Can`t Help Falling In Love
TTITLE10=Ruby Ann
TTITLE11=Riders In The Sky
TTITLE12=18 Yellow Roses
TTITLE13=Am I That Easy To Forget
TTITLE14=Streets Of Larado
TTITLE15=Summertime
TTITLE16=I Did What I Did For Maria
TTITLE17=By The Time I Get To Phoenix
TTITLE18=La Paloma
TTITLE19=You Gave Me A Mountain
EXTD=MARTY ROBBINS - THE BEST OF MARTY ROBBINS\n\nCompilation © 1996\n
EXTD=Columbia - Sony - 485128 2
EXTT0=
EXTT1=
EXTT2=
EXTT3=
EXTT4=
EXTT5=
EXTT6=
EXTT7=
EXTT8=
EXTT9=
EXTT10=
EXTT11=
EXTT12=
EXTT13=
EXTT14=
EXTT15=
EXTT16=
EXTT17=
EXTT18=
EXTT19=
PLAYORDER=
